<svg viewBox="0 0 10.2474 15.3713" xmlns="http://www.w3.org/2000/svg" xmlns:xlink="http://www.w3.org/1999/xlink" width="10.247437" height="15.371307" fill="none" customFrame="#000000">
	<g id="Group 10">
		<path id="Rectangle 114" d="M2.56186 0L5.12373 0L5.12373 5.12373L2.56186 5.12373C1.14699 5.12373 0 3.97674 0 2.56186C0 1.14699 1.14699 0 2.56186 0Z" fill="rgb(232,77,42)" fill-rule="nonzero" />
		<path id="Rectangle 117" d="M2.56186 0L5.12372 0L5.12372 5.12373L2.56186 5.12373C1.14699 5.12373 0 3.97674 0 2.56186C0 1.14699 1.14699 0 2.56186 0Z" fill="rgb(245,111,99)" fill-rule="nonzero" transform="matrix(-1,0,0,1,10.2474,3.05176e-05)" />
		<path id="Rectangle 118" d="M2.56186 0C3.97674 0 5.12372 1.14699 5.12372 2.56187C5.12372 3.97674 3.97674 5.12373 2.56186 5.12373C1.14698 5.12373 0 3.97674 0 2.56187C0 1.14699 1.14698 0 2.56186 0Z" fill="rgb(42,183,243)" fill-rule="nonzero" transform="matrix(-1,0,0,1,10.2474,5.12387)" />
		<path id="Rectangle 115" d="M2.56186 5.12387L5.12372 5.12387L5.12372 10.2476L2.56186 10.2476C1.14699 10.2476 0 9.10061 0 7.68573C0 6.27086 1.14699 5.12387 2.56186 5.12387Z" fill="rgb(156,93,243)" fill-rule="nonzero" />
		<path id="Rectangle 116" d="M2.56186 10.2476L5.12372 10.2476L5.12372 12.8095C5.12372 14.2243 3.97674 15.3713 2.56186 15.3713C1.14698 15.3713 0 14.2243 0 12.8095C0 11.3946 1.14698 10.2476 2.56186 10.2476Z" fill="rgb(35,200,129)" fill-rule="nonzero" />
	</g>
</svg>
